<?xml version="1.0" standalone="no"?>
<!DOCTYPE svg PUBLIC "-//W3C//DTD SVG 20010904//EN"
 "http://www.w3.org/TR/2001/REC-SVG-20010904/DTD/svg10.dtd">
<svg version="1.0" xmlns="http://www.w3.org/2000/svg"
 width="700.000000pt" height="700.000000pt" viewBox="0 0 700.000000 700.000000"
 preserveAspectRatio="xMidYMid meet">
<metadata>
Created by potrace 1.11, written by Peter Selinger 2001-2013
</metadata>
<g transform="translate(0.000000,700.000000) scale(0.100000,-0.100000)"
fill="#000000" stroke="none">
<path d="M3278 6995 c-1 -1 -41 -5 -88 -9 -87 -7 -105 -9 -225 -27 -116 -18
-123 -19 -192 -35 -147 -33 -202 -47 -298 -76 -212 -64 -525 -199 -699 -302
-43 -25 -82 -46 -87 -46 -5 0 -9 -4 -9 -10 0 -5 -5 -10 -11 -10 -16 0 -210
-133 -319 -219 -493 -386 -871 -889 -1100 -1462 -66 -165 -142 -408 -165 -530
-3 -13 -11 -58 -20 -99 -29 -147 -35 -194 -52 -370 -15 -163 -8 -592 12 -711
2 -13 6 -46 9 -74 9 -78 22 -152 51 -285 21 -96 91 -339 114 -395 5 -11 30
-75 55 -142 54 -140 181 -394 249 -501 26 -40 47 -76 47 -81 0 -5 3 -11 8 -13
4 -2 29 -36 57 -77 40 -61 93 -132 142 -196 61 -77 173 -202 259 -289 154
-154 338 -311 353 -302 25 16 100 147 112 196 22 93 15 277 -15 410 -28 121
-54 251 -62 304 -2 17 -7 54 -11 81 -14 109 -5 225 25 325 l30 95 -122 40
c-133 45 -183 69 -267 126 -98 66 -169 169 -169 244 0 65 92 261 156 332 l43
48 1 -50 c3 -174 63 -322 172 -421 49 -45 167 -107 238 -125 l46 -12 103 86
c113 95 183 144 260 183 46 22 83 32 201 50 19 3 60 9 90 14 30 5 73 12 95 15
22 4 56 10 75 15 19 4 58 11 85 15 31 4 80 24 129 51 43 24 80 44 82 44 2 0
28 16 58 35 30 19 58 35 61 35 3 0 22 10 43 23 20 13 62 37 92 54 30 16 111
61 180 100 69 39 152 84 186 101 131 66 381 366 492 590 85 170 113 272 118
432 2 63 6 126 9 138 15 78 16 242 1 312 -8 41 -19 93 -23 115 -9 48 -8 175 2
343 5 91 4 122 -5 122 -21 0 -104 62 -157 117 -29 31 -66 83 -82 117 l-30 61
22 9 c12 5 56 9 97 10 65 1 81 -3 123 -27 26 -15 48 -23 48 -17 3 25 3 38 -5
85 -12 75 -57 165 -135 269 -108 143 -203 309 -242 423 -14 42 -17 74 -14 141
3 48 6 94 8 102 15 59 23 80 49 118 37 54 113 129 151 148 27 15 67 26 67 20
0 -2 -24 -28 -53 -59 -30 -31 -70 -89 -91 -129 -84 -166 -50 -331 99 -482 46
-47 60 -50 98 -18 9 9 24 41 33 71 20 71 72 217 91 256 32 63 103 118 165 126
38 5 35 -7 -8 -41 -81 -65 -122 -142 -153 -285 -32 -145 -12 -267 52 -321 27
-23 38 -26 87 -22 74 5 179 55 214 101 42 55 63 123 59 190 -2 31 -2 57 1 57
11 0 37 -115 37 -166 1 -44 -6 -68 -30 -114 -27 -50 -30 -62 -20 -84 15 -31
56 -49 98 -41 99 17 248 112 297 188 16 25 32 46 36 47 14 0 -4 -85 -28 -136
-29 -61 -81 -117 -135 -145 -82 -41 -243 -53 -412 -30 -118 16 -191 -1 -214
-50 -36 -74 76 -201 212 -243 29 -8 107 -17 185 -20 142 -5 165 -8 270 -32 36
-9 73 -17 83 -19 38 -8 287 -85 397 -122 138 -47 190 -93 190 -170 0 -45 -35
-89 -78 -99 -32 -8 -80 -35 -139 -79 -36 -28 -53 -33 -122 -38 -91 -7 -142
-28 -195 -81 -33 -34 -34 -35 -27 -98 6 -67 7 -321 0 -613 l-4 -180 66 -100
c144 -219 252 -469 275 -636 3 -22 7 -48 9 -57 2 -9 4 -29 4 -43 l1 -26 103
29 c56 16 109 31 118 33 8 2 89 24 179 50 90 26 171 48 179 50 9 2 60 15 115
30 54 15 108 24 120 21 55 -14 156 -143 163 -210 5 -40 -3 -61 -91 -239 l-97
-195 -4 -109 c-2 -59 -4 -175 -4 -257 l-1 -148 -82 -82 c-102 -101 -212 -222
-273 -301 -46 -59 -68 -75 -78 -58 -3 5 -7 46 -8 92 -1 46 -6 104 -12 129 -15
70 3 113 61 151 66 42 116 94 118 122 2 29 15 202 19 244 18 219 18 220 30
298 4 26 5 47 2 47 -10 0 -103 -56 -194 -119 -109 -73 -182 -129 -274 -212
-39 -35 -76 -67 -83 -71 -19 -11 -247 -88 -275 -93 -15 -2 -62 -25 -105 -49
-154 -88 -558 -246 -691 -270 -11 -2 -58 -11 -105 -20 -47 -8 -101 -18 -120
-21 -19 -3 -57 -10 -85 -15 -27 -5 -63 -12 -80 -15 -16 -3 -41 -7 -55 -10 -14
-3 -41 -8 -60 -11 -19 -3 -111 -26 -205 -49 -244 -62 -390 -118 -513 -198
-109 -70 -155 -135 -288 -398 -79 -156 -116 -195 -339 -354 -316 -224 -475
-340 -475 -346 0 -14 284 -156 433 -217 156 -64 388 -139 517 -167 11 -3 28
-7 38 -9 45 -11 233 -46 277 -51 28 -4 61 -8 75 -11 147 -25 683 -25 841 1 13
2 44 6 69 9 25 3 72 11 105 17 33 5 74 12 90 15 139 23 414 106 617 185 132
52 421 194 465 229 14 11 30 20 34 20 14 0 253 164 349 239 368 286 680 651
909 1059 55 99 153 302 166 343 4 13 11 29 16 35 5 6 15 31 23 55 8 24 28 82
45 129 27 72 94 307 106 371 2 12 6 28 9 37 3 9 7 33 10 52 3 19 8 46 11 60 2
13 7 42 10 65 3 22 8 47 10 55 3 14 8 52 21 175 9 82 11 523 3 607 -13 144
-22 210 -39 308 -6 36 -13 79 -16 95 -3 17 -21 91 -39 165 -152 610 -467 1167
-917 1620 -379 381 -813 653 -1353 846 -74 26 -286 85 -380 105 -139 29 -136
28 -180 34 -22 3 -51 7 -65 10 -13 2 -52 7 -86 11 -33 3 -74 8 -90 10 -32 5
-540 14 -546 9z"/>
</g>
</svg>
